<svg id="clouds" xmlns="http://www.w3.org/2000/svg" xmlns:xlink="http://www.w3.org/1999/xlink" width="3840" height="2160" viewBox="0 0 3840 2160" overflow="visible">
  <defs>
    <style>
      .cls-1 {
        fill: #f0f2f6;
        stroke: #fcfcfc;
      }

      .cls-1, .cls-2, .cls-3 {
        stroke-linecap: square;
        stroke-linejoin: bevel;
        fill-rule: evenodd;
      }

      .cls-1, .cls-2 {
        stroke-width: 1px;
      }

      .cls-2, .cls-3 {
        stroke: #b91616;
      }

      .cls-2 {
        fill: url(#linear-gradient);
      }

      .cls-3 {
        fill: none;
        stroke-width: 28px;
      }
    </style>
    <linearGradient id="linear-gradient" x1="1867.022" y1="-592.062" x2="1788.732" y2="489.562" gradientUnits="userSpaceOnUse">
      <stop offset="0" stop-color="#b91616"/>
      <stop offset="0.001" stop-color="#b91616"/>
      <stop offset="1" stop-color="#b91616"/>
    </linearGradient>
  </defs>
  <path id="cloud_right" data-name="cloud right" class="cls-1" transform="translate(-2628 -402) scale(1.5)" d="M4055.73,1707.6c-103.88,29.52-213.2,21.72-300.89-34.84-91.28-58.86-174.4-180.07-139.13-243.16,5.91-10.58,18.34-22.98,38.75-34.3,24.33-13.51,43.74-7.97,58.54-20.92,40.45-35.38,13.43-166.64-65.53-252.36-48.5-52.66-119.55-81.31-176.48-125.211-30.82-23.762-62.4-51.9-80.3-98.716-25.23-66-17.46-156.923,28.98-184.884,54.29-32.689,121.28,44.923,174.52,18.963,122.97-59.959-7.69-561.168,56.28-582.537,39.82-13.3,121.26,170.694,194.05,157,61.68-11.606,65.22-157.128,153.88-218.625,48.07-33.349,110.21-43.562,183.72-34.3"/>
  <path id="cloud_right_copy" data-name="cloud right copy" class="cls-1" transform="translate(531 -402) scale(1.5)" d="M-61.545,1707.6c103.876,29.52,213.2,21.72,300.889-34.84,91.273-58.86,174.4-180.07,139.131-243.16-5.913-10.58-18.343-22.98-38.749-34.3-24.339-13.51-43.748-7.97-58.544-20.92-40.449-35.38-13.433-166.64,65.531-252.36,48.5-52.66,119.551-81.31,176.482-125.211,30.813-23.762,62.4-51.9,80.3-98.716,25.229-66,17.454-156.923-28.982-184.884-54.287-32.689-121.282,44.923-174.523,18.963C277.02,672.213,407.686,171,343.71,149.635c-39.823-13.3-121.259,170.694-194.048,157C87.982,295.026,84.437,149.5-4.215,88.007c-48.075-33.349-110.217-43.562-183.719-34.3"/>
  <path id="main_bck" data-name="main bck" class="cls-2" transform="scale(1 0.82)" d="M-114.519,489.552q697.346-135.5,1397.879-174.735c276.63-15.424,560.12-19.407,857.03-12.481,299.67,6.99,594.44,25.541,892.4,56.165,287.25,29.523,568.68,69.336,852.87,120.65,41.51-138.4,44.92-265.91,4.16-380.672C3536.86-895.364-50.836-715.543-247.65.711c-20.313,73.926-40.31,284.572,81.6,436.2A379.048,379.048,0,0,0-114.519,489.552Z"/>
  <path class="cls-3" transform="translate(-200 0)" d="M3190.72,1048.62c10.02-55.074,39.91-105.707,88.2-135.155,80.18-48.905,189.63-26.069,244.18,37.973,14.8,17.384,53.7,70.6,33.89,123.312-19.02,50.59-85.1,88.19-142.51,64.92-41.56-16.84-68.55-61.46-64.92-102.08,2.16-24.22,33.2-69.358,108.61-105.751a320.41,320.41,0,0,1,98.41-28.991"/>
  <path class="cls-3" transform="translate(200 160)" d="M112.69,917.171c-0.944,21.249,3.309,39.7,14.349,53.808,26.479,33.841,80.04,27.325,140.418,27.672a526.5,526.5,0,0,1,181.415,32.8c69.283,25.74,98.792,54.73,106.594,86.09,4.272,17.17,3.327,39.11-8.2,57.4-24.187,38.38-79.044,37.04-106.081,31.26-29.158-6.24-62.712-24.83-60.475-38.56,2.364-14.51,44.2-20.7,73.8-18.84,28.093,1.77,64.839,12.08,91.732,39.97,7.373,7.65,15.946,21.19,24.6,34.34,4.274,6.49,8.655,13.15,12.812,19.47"/>
</svg>
