<svg id="clouds" xmlns="http://www.w3.org/2000/svg" width="3840" height="2160" viewBox="0 0 3840 2160">
  <defs>
    <style>
      .cls-1 {
        fill: #f0f2f6;
        stroke: #fcfcfc;
        stroke-width: 1px;
      }

      .cls-1, .cls-2 {
        stroke-linecap: square;
        stroke-linejoin: bevel;
        fill-rule: evenodd;
      }

      .cls-2 {
        fill: none;
        stroke: #b91616;
        stroke-width: 10px;
      }
    </style>
  </defs>

  <!-- Right cloud + spiral, shifted inward -->
  <g transform="translate(-450, 0)">
    <path id="cloud_right" data-name="cloud right" class="cls-1" d="M3839.73,1785.6c-103.88,29.52-213.2,21.72-300.89-34.84-91.28-58.86-174.4-180.07-139.13-243.16,5.91-10.58,18.34-22.98,38.75-34.3,24.33-13.51,43.74-7.97,58.54-20.92,40.45-35.38,13.43-166.64-65.53-252.36-48.5-52.66-119.55-81.31-176.48-125.21-30.82-23.76-62.4-51.9-80.3-98.717-25.23-66-17.46-156.923,28.98-184.884,54.29-32.689,121.28,44.923,174.52,18.963,122.97-59.959-7.69-561.168,56.28-582.537,39.82-13.3,121.26,170.694,194.05,157,61.68-11.606,65.22-157.128,153.88-218.625,48.07-33.35,110.21-43.562,183.72-34.3"/>
    <path class="cls-2" d="M2974.72,1126.62c10.02-55.07,39.91-105.71,88.2-135.155,80.18-48.9,189.63-26.069,244.18,37.975,14.8,17.38,53.7,70.6,33.89,123.31-19.02,50.59-85.1,88.19-142.51,64.92-41.56-16.84-68.55-61.46-64.92-102.08,2.16-24.22,33.2-69.36,108.61-105.75a320.384,320.384,0,0,1,98.41-28.992"/>
  </g>

  <!-- Left cloud + spiral, shifted inward -->
  <g transform="translate(450, 0)">
    <path id="cloud_right_copy" data-name="cloud right copy" class="cls-1" d="M-4.545,1785.6c103.876,29.52,213.2,21.72,300.889-34.84,91.273-58.86,174.4-180.07,139.131-243.16-5.913-10.58-18.342-22.98-38.749-34.3-24.339-13.51-43.748-7.97-58.544-20.92-40.449-35.38-13.433-166.64,65.531-252.36,48.5-52.66,119.551-81.31,176.482-125.21,30.813-23.76,62.4-51.9,80.3-98.717,25.229-66,17.454-156.923-28.982-184.884-54.287-32.689-121.282,44.923-174.523,18.963C334.02,750.213,464.686,249,400.71,227.635c-39.823-13.3-121.259,170.694-194.048,157C144.982,373.026,141.437,227.5,52.785,166.007c-48.075-33.35-110.217-43.562-183.719-34.3"/>
    <path class="cls-2" d="M169.69,995.171c-0.944,21.249,3.309,39.7,14.349,53.809,26.479,33.84,80.04,27.32,140.418,27.67a526.623,526.623,0,0,1,181.415,32.8c69.283,25.74,98.792,54.73,106.594,86.09,4.272,17.17,3.327,39.11-8.2,57.4-24.187,38.38-79.044,37.04-106.081,31.26-29.158-6.24-62.711-24.83-60.475-38.56,2.364-14.51,44.2-20.7,73.8-18.84,28.093,1.77,64.839,12.08,91.732,39.97,7.373,7.65,15.946,21.19,24.6,34.34,4.274,6.49,8.655,13.15,12.812,19.47"/>
  </g>

</svg>
