<svg id="clouds" xmlns="http://www.w3.org/2000/svg" width="3840" height="2160" viewBox="0 0 3840 2160">
  <defs>
    <style>
      .cls-1 {
        fill: #b91616;
      }

      .cls-1, .cls-3 {
        stroke: #b91616;
        stroke-width: 10px;
      }

      .cls-1, .cls-2, .cls-3 {
        stroke-linecap: square;
        stroke-linejoin: bevel;
        fill-rule: evenodd;
      }

      .cls-2 {
        fill: #f0f2f6;
        stroke: #fcfcfc;
        stroke-width: 1px;
      }

      .cls-3 {
        fill: none;
      }
    </style>
  </defs>
  <path class="cls-1" d="M-364.647-80.032c-265.412,187.5-270.389,711.84-310.9,1182-29.989,348-76.344,553.56,40.516,659.51,173.768,157.54,799.957-48.56,1001.646-54.02,311.178-8.43,597.954,46.64,733.789,101.29,118.9,47.83,260.99,148.89,434.42,193.57,328.11,84.54,598.28-12,832.83-83.28,244.45-74.29,432.67-75.43,673.02-162.06,68.29-24.62,257.88-85.31,436.67-90.04,121.1-3.21,230.04,14.91,360.14,29.26,114.26,12.6,225.67,21.59,272.36,6.75,262.44-83.38,376.64-465.94,420.92-756.295,63.61-417.206-40.93-695.024-139.56-819.324C4282.89-9.17,4140.09-89.292,3972.54-145.026c-477.3-158.77-958.37-64.078-1150.21-31.513-438.38,74.419-773.66,7.049-1226.73,33.764-334.54,19.725-601.231,54.365-882.352,9-210.583-33.979-395.607-28.722-603.239-49.519-65.923-6.6-265.9-27.732-447.927,85.534C-347.107-92.039-355.963-86.167-364.647-80.032Z"/>
  <path id="cloud_right" data-name="cloud right" class="cls-2" d="M3842.05,2091.89c-132.02,37.51-270.96,27.6-382.41-44.28-116-74.82-221.65-228.86-176.83-309.05,7.52-13.44,23.32-29.2,49.25-43.59,30.93-17.17,55.6-10.13,74.41-26.58,51.4-44.97,17.07-211.79-83.29-320.74-61.64-66.92-151.94-103.33-224.29-159.13-39.17-30.2-79.31-65.96-102.06-125.46-32.06-83.876-22.18-199.437,36.84-234.974,68.99-41.545,154.14,57.093,221.8,24.1,156.29-76.2-9.78-713.2,71.53-740.362,50.61-16.9,154.11,216.94,246.62,199.533,78.39-14.752,82.89-199.7,195.56-277.858,61.11-42.384,140.08-55.364,233.5-43.592"/>
  <path class="cls-3" d="M3286.64,1235.3c12.74-69.99,50.73-134.34,112.1-171.77,101.91-62.15,241-33.13,310.33,48.26,18.82,22.1,68.25,89.73,43.07,156.72-24.16,64.3-108.15,112.09-181.11,82.52-52.82-21.42-87.13-78.12-82.51-129.74,2.75-30.79,42.2-88.15,138.04-134.41a407.218,407.218,0,0,1,125.07-36.84"/>
  <path id="cloud_right_copy" data-name="cloud right copy" class="cls-2" d="M-39.135,2073.71c129.718,36.86,266.24,27.12,375.746-43.5,113.98-73.52,217.785-224.88,173.745-303.67-7.385-13.21-22.907-28.69-48.39-42.83-30.394-16.87-54.632-9.95-73.109-26.12-50.512-44.18-16.775-208.09,81.835-315.15,60.565-65.75,149.293-101.53,220.387-156.36,38.478-29.67,77.924-64.8,100.274-123.27,31.5-82.415,21.8-195.963-36.192-230.881-67.794-40.821-151.455,56.1-217.942,23.68-153.559-74.875,9.614-700.777-70.278-727.463-49.73-16.61-151.426,213.161-242.323,196.056-77.026-14.494-81.452-196.219-192.16-273.016C-27.578,9.54-105.179-3.213-196.968,8.353"/>
  <path class="cls-3" d="M154.774,643.363c-17.269,20.182-27.269,41.6-27.258,63.978C127.544,761,185.258,795.775,244.4,842.547A657.338,657.338,0,0,1,397.681,1014.32c48.375,78.61,55.117,129.82,38.68,166.68-9,20.18-26.8,41.03-52.2,50.17-53.314,19.16-106.262-24.34-128.417-50.82-23.892-28.56-42.616-72.65-29.853-84.44,13.484-12.46,59.406,13.62,87.1,38.21,26.282,23.35,54.507,61.75,59.522,109.87,1.375,13.2-.605,33.11-2.2,52.7-0.787,9.68-1.6,19.6-2.369,29.01"/>
</svg>
