<svg xmlns="http://www.w3.org/2000/svg" width="2896" height="1957" viewBox="0 0 2896 1957">
  <defs>
    <style>
      .cls-1 {
        fill: #f2f2f2;
        stroke: #fff;
        stroke-width: 1px;
        fill-rule: evenodd;
      }
    </style>
  </defs>
  <path id="cloud_1" data-name="cloud 1" class="cls-1" d="M546.513,1347.02c139.251,15.08,157.76,227.62,296.987,277.99,160.42,58.05,329.05-135.65,467.65-57.19,42.28,23.94,54.22,63.94,85.87,94.05,35.7,33.96,141.39,89.55,282.67,105.23,163.72,18.18,287.54-22.02,342.94-56.17,44.1-27.18,111.97-91.19,167.64-184,35.69-59.49,63.48-123.45,65.43-147.2,2-24.47-.09-48.64,16.35-61.34,33.9-26.17,121.84,39.02,194.08,43.75,92.42,6.06,172.61-41.21,215.56-75.78,48.63-39.13,99.13-103.69,126.02-221.48,22.03-96.538,13.1-188.507-20.45-265.783-39.28-90.49-89.73-140.421-130.85-163.558-105.82-59.555-193.66-2.621-302.58-53.157-50.95-23.642-97.74-85.649-159.47-159.469-60.42-72.262-112.03-129.465-167.64-163.558-81.3-49.835-180.84-77.971-282.14-73.6-100.07,4.316-202.01,31.445-273.96,94.046-41.49,36.093-70.25,78.922-126.76,85.868-52.41,6.441-88.82-22.853-134.94-44.979-37.37-17.928-108.73-36.1-192.18-36.8-97.2-.815-240.7,19.508-327.114,110.4C623.145,464.219,630.853,561.652,550.6,611.005c-85.914,52.836-169.76-8.073-265.782,28.623C161.2,686.871,77.06,840.26,76.283,987.189c-0.506,95.741,35.7,233.961,159.469,318.941,52.924,36.34,118.173,61.65,184,61.33C474.077,1367.2,496.733,1341.63,546.513,1347.02Z"/>
</svg>
