<svg xmlns="http://www.w3.org/2000/svg" width="2896" height="1957" viewBox="0 0 2896 1957">
  <defs>
    <style>
      .cls-1 {
        fill: #f2f2f2;
        stroke: #fff;
        stroke-width: 1px;
        fill-rule: evenodd;
      }
    </style>
  </defs>
  <path class="cls-1" d="M263.948,1527.05c293.827,134.24,601.1,217.85,914.592,248.02,573.29,55.18,1203.73-201.88,1309.88-248.02,89.7-38.99,185.49-93.56,224.77-197.65,28.03-74.27,29.77-165.61-11.62-248.02-18.99-37.79-82.16-143.157-186.02-155.016-38.05-4.345-95.98,21.7-120.14,0-34.12-30.654,15.83-126.423,0-201.52-22.45-106.558-115.49-167.882-167.63-191.78-61.13-28.016-174.65-54.2-260.68,0-29.35,18.49-45.99,40.468-71.61,36.765-37.94-5.482-62.13-62.393-89.14-155.016-30.65-105.116-43.26-173.464-100.76-213.146-33.87-23.378-74.14-30.5-139.51-27.128-96.6,4.987-160.06,33.448-254.19,55.723-59.99,14.2-99.63,20.422-133.35,56.663-44.63,47.961-31.19,112.858-77.51,147.265-50.45,37.482-121.047,3.148-225.943-20.838-99.261-22.7-197.962-22.69-239.539-14.084-84.309,17.45-184.465,63.91-246.585,154.922C325.3,647.458,297.74,787.325,346.692,892.2c17.784,38.1,39.216,58.663,33.518,92.294-12.84,75.785-147.3,90.005-193.769,166.645C133.439,1238.54,172.711,1372.62,263.948,1527.05Z"/>
</svg>
