<svg id="clouds" xmlns="http://www.w3.org/2000/svg" width="3840" height="2160" viewBox="0 0 3840 2160">
  <defs>
    <style>
      .cls-1 {
        fill: #f0f2f6;
        stroke: #fcfcfc;
        stroke-linecap: square;
        stroke-linejoin: bevel;
        stroke-width: 1px;
        fill-rule: evenodd;
      }
    </style>
  </defs>
  <path id="cloud_right" data-name="cloud right" class="cls-1" d="M3973.25,2226.1c24.93-162.23-7.45-325.64-109.28-447.23-106-126.56-304.47-229.07-392.98-163.98-14.84,10.91-31.19,32-44.42,64.91-15.78,39.25-3.77,67.48-20.5,92.24-45.74,67.68-248.79,51.68-392.98-51.25-88.56-63.21-145.17-164.97-222.11-242.55-41.65-41.99-90.04-84.33-164.03-102.49-104.29-25.6-239.96,3.27-273.37,78.57-39.07,88.04,90.62,174.45,61.51,259.64-67.24,196.76-847.8,94.21-867.96,194.73-12.56,62.57,280.3,150.69,273.37,263.05-5.87,95.22-224.68,128-300.71,273.31-41.23,78.79-44.92,174.44-17.09,283.55"/>
  <path id="cloud_right_copy" data-name="cloud right copy" class="cls-1" d="M2077.25,2338.49c24.93-162.23-7.45-325.64-109.28-447.23-106-126.55-304.47-229.07-392.98-163.98-14.84,10.91-31.19,32-44.42,64.91-15.78,39.25-3.77,67.48-20.5,92.24-45.74,67.68-248.79,51.68-392.98-51.25-88.56-63.21-145.166-164.97-222.114-242.55-41.648-41.99-90.037-84.33-164.025-102.49-104.291-25.6-239.959,3.27-273.373,78.57-39.064,88.04,90.622,174.45,61.509,259.64-67.24,196.77-847.8,94.21-867.962,194.73C-361.426,2083.65-68.57,2171.77-75.5,2284.13c-5.874,95.22-224.679,128.01-300.711,273.31-41.231,78.79-44.915,174.44-17.086,283.55"/>
</svg>
