<svg id="clouds" xmlns="http://www.w3.org/2000/svg" xmlns:xlink="http://www.w3.org/1999/xlink" width="3840" height="2160" viewBox="0 0 3840 2160">
  <defs>
    <style>
      .cls-1 {
        fill: #f0f2f6;
        stroke: #fcfcfc;
      }

      .cls-1, .cls-2 {
        stroke-linecap: square;
        stroke-linejoin: bevel;
        stroke-width: 1px;
        fill-rule: evenodd;
      }

      .cls-2 {
        stroke: #b91616;
        fill: url(#linear-gradient);
      }
    </style>
    <linearGradient id="linear-gradient" x1="1959.645" y1="1775.75" x2="1881.354" y2="2857.38" gradientUnits="userSpaceOnUse">
      <stop offset="0" stop-color="#b91616"/>
      <stop offset="0.001" stop-color="#b91616"/>
      <stop offset="1" stop-color="#b91616"/>
    </linearGradient>
  </defs>
  <path id="cloud_left" data-name="cloud left" class="cls-1" d="M-541,1579c57.564-100.55,148.067-177.36,258.837-204.01,59.939-14.42,161.434-15.27,286.021,39.55,75.745,33.33,111.1,76.56,185.611,112.56,91.5,44.22,200.219,69.66,307.321,60.85,52.249-4.3,161.006-35.03,264.723-91.27,83.328-45.18,125.939-85.97,203.867-91.27,125.81-8.55,229.74,74.92,273.85,118.65,30.52,30.25,89.96,120.23,121.71,231.21,30.01,104.89,23.27,202.69,12.17,231.21-19.58,50.35-71.88,118.19-185.61,170.37-200.427,91.96-400.636,40.67-593.34,3.04-138.828-27.11-316.768-52.07-480.761-69.97-63.975-6.98-252.721-46.76-352.963-69.97-35.094-8.13-68.216-17.77-106.5-36.51-39.711-19.44-64.837-42.36-103.455-63.89-25.732-14.34-55.188-29.88-76.07-39.55-32.556-15.07-52.625-22.25-63.9-42.59C-615.257,1790.92-564.836,1705.66-562,1646a296.981,296.981,0,0,0-3-58"/>
  <path id="cloud_left_copy" data-name="cloud left copy" class="cls-1" d="M2749,1747c57.56-100.55,148.07-177.36,258.84-204.01,59.94-14.42,161.43-15.27,286.02,39.55,75.74,33.33,111.1,76.56,185.61,112.56,91.5,44.22,200.22,69.66,307.32,60.85,52.25-4.3,161.01-35.03,264.72-91.27,83.33-45.18,125.94-85.97,203.87-91.27,125.81-8.55,229.74,74.92,273.85,118.65,30.52,30.25,89.96,120.23,121.71,231.21,30.01,104.89,23.27,202.69,12.17,231.21-19.58,50.35-71.88,118.19-185.61,170.37-200.43,91.96-400.64,40.67-593.34,3.04-138.83-27.11-316.77-52.07-480.76-69.97-63.98-6.98-252.72-46.76-352.96-69.97-35.1-8.13-68.22-17.77-106.5-36.51-39.71-19.44-64.84-42.36-103.46-63.89-25.73-14.34-55.19-29.88-76.07-39.55-32.55-15.07-52.62-22.25-63.9-42.59-25.77-46.49,24.65-131.75,27.49-191.41a296.981,296.981,0,0,0-3-58"/>
  <path id="cloud_right" data-name="cloud right" class="cls-1" d="M2760,1932c16.4-106.74-4.9-214.25-71.9-294.24-69.74-83.27-200.32-150.71-258.55-107.89-9.76,7.18-20.52,21.05-29.23,42.71-10.38,25.82-2.48,44.39-13.49,60.68-30.09,44.53-163.68,34.01-258.55-33.71-58.26-41.59-95.5-108.54-146.13-159.59-27.4-27.62-59.24-55.47-107.92-67.43-68.61-16.84-157.87,2.15-179.86,51.7-25.7,57.92,59.63,114.77,40.47,170.82-44.24,129.46-557.78,61.99-571.05,128.12-8.26,41.16,184.42,99.14,179.86,173.07-3.87,62.64-147.82,84.21-197.85,179.81-27.12,51.84-29.55,114.77-11.24,186.56"/>
  <path id="main_bck" data-name="main bck" class="cls-2" transform="translate(0 -100)" d="M-21.9,1775.75Q675.45,1911.245,1375.98,1950.48c276.63,15.43,560.12,19.41,857.03,12.49,299.67-6.99,594.44-25.55,892.4-56.17,287.25-29.52,568.69-69.34,852.87-120.65,41.51,138.4,44.92,265.91,4.16,380.67-352.95,993.84-3940.654,814.02-4137.468,97.77-20.313-73.92-40.31-284.57,81.6-436.2A379.278,379.278,0,0,1-21.9,1775.75Z"/>
</svg>
