<svg id="clouds" xmlns="http://www.w3.org/2000/svg" xmlns:xlink="http://www.w3.org/1999/xlink" width="1080" height="1920" viewBox="0 0 1080 1920">
  <defs>
    <style>
      .cls-1 {
        fill: #f8f8f8;
      }

      .cls-1, .cls-4 {
        stroke: #fcfcfc;
      }

      .cls-1, .cls-4, .cls-5 {
        stroke-linecap: square;
        stroke-linejoin: bevel;
      }

      .cls-1, .cls-3, .cls-4, .cls-5 {
        stroke-width: 1px;
      }

      .cls-1, .cls-2, .cls-3, .cls-4, .cls-5 {
        fill-rule: evenodd;
      }

      .cls-2, .cls-3 {
        fill: #b91616;
      }

      .cls-3, .cls-5 {
        stroke: #b91616;
      }

      .cls-4 {
        fill: #f0f2f6;
      }

      .cls-5 {
        fill: url(#linear-gradient);
      }
    </style>
    <linearGradient id="linear-gradient" x1="1646.166" y1="1123.47" x2="1544.773" y2="2524.25" gradientUnits="userSpaceOnUse">
      <stop offset="0" stop-color="#b91616"/>
      <stop offset="0.001" stop-color="#b91616"/>
      <stop offset="1" stop-color="#b91616"/>
    </linearGradient>
  </defs>
  <path class="cls-1" d="M-735,957c22.092-24.677,678-425,678-425L655,851l726-207,917,345,875-242s511.04,1241.63,495,1263-179.3,389.44-269,438-419.11,186.38-748,195-1334.38-42.69-1536-32-1803.372,10.19-1817,5-549-522-549-522l160-468S-757.092,981.677-735,957Z"/>
  <path id="red_star_1" data-name="red star 1" class="cls-2" d="M294.343,615.981c9.669,0.235,10.77,14.2,1.257,15.95l-76.519,14.056,26.439,73.168c3.287,9.1-9.33,15.188-14.409,6.956l-47.785-77.457-90.985-2.217c-9.669-.236-10.77-14.2-1.257-15.951L167.6,616.431l-26.439-73.169c-3.287-9.1,9.33-15.187,14.409-6.956l47.785,77.458Z"/>
  <path id="red_star_1_copy" data-name="red star 1 copy" class="cls-2" d="M889.26,111.047c-0.088-9,12.861-10.463,14.788-1.675l15.5,70.686,67.179-26.9c8.352-3.345,14.416,8.191,6.925,13.173L923.16,213.212l0.83,84.652c0.088,9-12.861,10.464-14.788,1.676l-15.5-70.687-67.179,26.9c-8.352,3.344-14.416-8.192-6.925-13.174L890.09,195.7Z"/>
  <path id="Shape_2_copy" data-name="Shape 2 copy" class="cls-3" d="M-311.354,2402.33C-80.814,1718.88,216,968.75,430,1002c236.921,36.81,274.208,1035.94,361,1032,85.738-3.89,81.49-980.05,261.8-1006.84,189.41-28.154,453.72,1000.79,664.7,970.03,155.93-22.74,146.89-605.57,289.51-625.08,109.98-15.05,248.16,313.38,358.98,634.34"/>
  <path id="cloud_left" data-name="cloud left" class="cls-4" d="M-563.346,1462.42c34.705-60.62,89.267-106.93,156.048-123,36.137-8.69,97.326-9.2,172.438,23.85,45.665,20.09,66.981,46.15,111.9,67.86C-67.8,1457.78-2.25,1473.12,62.32,1467.81c31.5-2.59,97.068-21.12,159.6-55.02,50.237-27.24,75.927-51.83,122.908-55.03,75.851-5.15,138.507,45.17,165.1,71.53,18.4,18.24,54.236,72.49,73.378,139.4,18.09,63.23,14.026,122.19,7.338,139.39-11.807,30.36-43.335,71.25-111.9,102.71-120.836,55.45-241.538,24.52-357.717,1.84-83.7-16.35-190.973-31.4-289.842-42.19-38.57-4.21-152.361-28.19-212.8-42.18-21.157-4.9-41.126-10.72-64.205-22.01-23.941-11.72-39.089-25.54-62.371-38.52-15.514-8.65-33.272-18.01-45.861-23.84-19.628-9.09-31.728-13.42-38.524-25.68-15.537-28.03,14.861-79.43,16.571-115.4a179.132,179.132,0,0,0-1.809-34.97"/>
  <path id="cloud_right" data-name="cloud right" class="cls-4" d="M1810.14,1542.72c12.16-79.13-3.63-158.84-53.3-218.14-51.71-61.73-148.52-111.74-191.69-79.99-7.24,5.32-15.21,15.61-21.67,31.66-7.69,19.15-1.84,32.92-10,44.99-22.31,33.02-121.35,25.21-191.68-24.99-43.2-30.84-70.81-80.47-108.34-118.31-20.32-20.49-43.92-41.14-80.01-50-50.87-12.48-117.05,1.6-133.35,38.33-19.05,42.94,44.21,85.09,30.01,126.65-32.8,95.97-413.537,45.95-423.373,94.98-6.123,30.52,136.726,73.5,133.345,128.31-2.865,46.44-109.593,62.44-146.68,133.31-20.111,38.44-21.908,85.09-8.334,138.31"/>
  <path id="main_bck" data-name="main bck" class="cls-5" d="M-367.8,1657.98q709.3,39.255,1408.648-17.28c276.16-22.4,557.55-57.07,850.75-104.37,295.92-47.74,585.42-106.26,876.43-177.18,280.55-68.37,553.94-146.14,828.49-235.69,59.97,131.46,80.72,257.32,55.97,376.56C3438.18,2532.68-140.577,2843.17-433.109,2160.4c-30.193-70.47-78.693-276.43,21.425-443.25A378.83,378.83,0,0,1-367.8,1657.98Z"/>
</svg>
