<svg id="Mountain" xmlns="http://www.w3.org/2000/svg" xmlns:xlink="http://www.w3.org/1999/xlink" width="3840" height="2160" viewBox="0 0 3840 2160">
  <defs>
    <style>
      .cls-1 { fill: #f8f8f8; }
      .cls-1, .cls-4 { stroke: #fcfcfc; }
      .cls-1, .cls-4, .cls-5 { stroke-linecap: square; stroke-linejoin: bevel; }
      .cls-1, .cls-3, .cls-4, .cls-5 { stroke-width: 1px; }
      .cls-1, .cls-2, .cls-3, .cls-4, .cls-5 { fill-rule: evenodd; }
      .cls-2, .cls-3 { fill: #b91616; }
      .cls-3, .cls-5 { stroke: #b91616; }
      .cls-4 { fill: #f0f2f6; }
      .cls-5 { fill: url(#linear-gradient); }
    </style>
    <linearGradient id="linear-gradient" x1="1961.645" y1="1633.75" x2="1883.354" y2="2715.38" gradientUnits="userSpaceOnUse">
      <stop offset="0" stop-color="#b91616"/>
      <stop offset="0.001" stop-color="#b91616"/>
      <stop offset="1" stop-color="#b91616"/>
    </linearGradient>
  </defs>

  <path class="cls-1" d="M-125,903c22.092-24.677,678-425,678-425l712,319,726-207,917,345,875-242s511.04,1241.63,495,1263-179.3,389.44-269,438-419.11,186.38-748,195-1334.38-42.69-1536-32-1803.372,10.19-1817,5-549-522-549-522l160-468S-147.092,927.677-125,903Z"/>

  <!-- Stars scaled to 50% and translated into mobile visible centre (x ≈1648–2192) -->
  <path id="red_star_1" data-name="red star 1" class="cls-2"
        transform="translate(340 150) scale(0.5)"
        d="M3679.34,561.981c9.67,0.235,10.77,14.2,1.26,15.95l-76.52,14.056,26.44,73.168c3.29,9.1-9.33,15.188-14.41,6.956l-47.78-77.457-90.99-2.217c-9.67-.236-10.77-14.2-1.26-15.951l76.52-14.055-26.44-73.169c-3.28-9.1,9.33-15.187,14.41-6.956l47.79,77.458Z"/>
  <path id="red_star_1_copy" data-name="red star 1 copy" class="cls-2"
        transform="translate(1673 223) scale(0.5)"
        d="M233.26,385.047c-0.088-9,12.861-10.463,14.788-1.675l15.5,70.686,67.179-26.9c8.352-3.345,14.416,8.191,6.925,13.173L267.16,487.212l0.83,84.652c0.088,9-12.861,10.464-14.788,1.676l-15.5-70.687-67.18,26.9c-8.351,3.344-14.415-8.192-6.924-13.174L234.09,469.7Z"/>

  <path class="cls-3" d="M2470.65,2481.33C2701.19,1797.88,2998,1047.75,3212,1081c236.92,36.81,274.21,1035.94,361,1032,85.74-3.89,81.49-980.05,261.8-1006.84,189.41-28.15,453.72,1000.79,664.7,970.03,155.93-22.74,146.89-605.57,289.51-625.08,109.98-15.05,248.16,313.38,358.98,634.34"/>
  <path id="Shape_2_copy" data-name="Shape 2 copy" class="cls-3" d="M-468.354,2516.33C-237.814,1832.88,59,1082.75,273,1116c236.921,36.81,274.208,1035.94,361,1032,85.738-3.89,81.49-980.05,261.795-1006.84,189.415-28.15,453.725,1000.79,664.705,970.03,155.93-22.74,146.89-605.57,289.51-625.08,109.98-15.05,248.16,313.38,358.98,634.34"/>
  <path id="cloud_left" data-name="cloud left" class="cls-4" transform="translate(1344 500) scale(0.3)" d="M-31,1572c57.564-100.55,148.067-177.36,258.837-204.01,59.939-14.42,161.434-15.27,286.021,39.55,75.745,33.33,111.1,76.56,185.611,112.56,91.5,44.22,200.219,69.66,307.321,60.85,52.25-4.3,161.01-35.03,264.72-91.27,83.33-45.18,125.94-85.97,203.87-91.27,125.81-8.55,229.74,74.92,273.85,118.65,30.52,30.25,89.96,120.23,121.71,231.21,30.01,104.89,23.27,202.69,12.17,231.21-19.58,50.35-71.88,118.19-185.61,170.37-200.43,91.96-400.64,40.67-593.34,3.04-138.828-27.11-316.768-52.07-480.761-69.97-63.975-6.98-252.721-46.76-352.963-69.97-35.094-8.13-68.216-17.77-106.5-36.51C124.227,1957,99.1,1934.08,60.483,1912.55c-25.732-14.34-55.188-29.88-76.069-39.55-32.556-15.07-52.626-22.25-63.9-42.59C-105.257,1783.92-54.836,1698.66-52,1639a296.973,296.973,0,0,0-3-58"/>
  <path id="cloud_right" data-name="cloud right" class="cls-4" transform="translate(1344 500) scale(0.3)" d="M3939,1871c16.4-106.74,-4.9-214.25,-71.9-294.24,-69.74-83.27,-200.32-150.71,-258.55-107.89,-9.76,7.18,-20.52,21.05,-29.23,42.71,-10.38,25.82,-2.48,44.39,-13.49,60.68,-30.09,44.53,-163.68,34.01,-258.55,-33.71,-58.26,-41.59,-95.5,-108.54,-146.13,-159.59,-27.4,-27.62,-59.24,-55.47,-107.92,-67.43,-68.61,-16.84,-157.87,2.15,-179.86,51.7,-25.7,57.92,59.63,114.77,40.47,170.82,-44.24,129.46,-557.78,61.99,-571.05,128.12,-8.26,41.16,184.42,99.14,179.86,173.07,-3.87,62.64,-147.82,84.21,-197.85,179.81,-27.12,51.84,-29.55,114.77,-11.24,186.56"/>
  <path id="main_bck" data-name="main bck" class="cls-5" transform="translate(1344 500) scale(0.3)" d="M-19.9,1633.75Q677.45,1769.245,1377.98,1808.48c276.63,15.43,560.12,19.41,857.03,12.49,299.67-6.99,594.44-25.55,892.4-56.17,287.25-29.52,568.69-69.34,852.87-120.65,41.51,138.4,44.92,265.91,4.16,380.67-352.95,993.84-3940.654,814.02-4137.468,97.77-20.313-73.92-40.31-284.57,81.6-436.2A379.278,379.278,0,0,1-19.9,1633.75Z"/>
</svg>
