<svg xmlns="http://www.w3.org/2000/svg" width="2896" height="1957" viewBox="0 0 2896 1957">
  <defs>
    <style>
      .cls-1 {
        fill: #f2f2f2;
        stroke: #fff;
        stroke-width: 1px;
        fill-rule: evenodd;
      }
    </style>
  </defs>
  <path class="cls-1" d="M-11,1357L411,683,549,576,693,363,807,236l229,145,186,49,131,140s64.13,232.837,60,242,70,247,70,247l222,98s378.76-29.63,404-41,246.07-181.823,262-182,245.93,205.68,290,289,179.59,413.28,200,450,141.97,165.56,153,182,47,120,47,120-44.24,79.84-131,69-335.28-46.27-381-44-219.24,6.83-337,10-428.49,6.29-534,12-670.42,6.67-827,18-747.51-57.55-822-54-189-4-189-4Z"/>
</svg>
