<svg xmlns="http://www.w3.org/2000/svg" width="1080" height="1920" viewBox="0 0 1080 1920">
  <defs>
    <style>
      .cls-1 {
        fill: none;
        stroke: #f0f2f6;
        stroke-linecap: square;
        stroke-linejoin: bevel;
        stroke-width: 150px;
        opacity: 0.33;
      }

      .cls-1, .cls-2 {
        fill-rule: evenodd;
      }

      .cls-2 {
        fill: #b91616;
      }
    </style>
  </defs>
  <path class="cls-1" d="M-1333,790c206.99,73.325,416.875,146.7,627.293,219.38C-133.593,1207.01,253.7,1323.66,650.27,1156.39c313.263-132.14,651.38-449.439,588.61-698.213C1192.05,272.56,919.284,194.3,764.314,182.094,628.13,171.367,443.587,199.352,300.782,332.139,70.273,546.479,43.3,930.7,146.271,1178.39c69.043,166.08,470.374,423.56,1142.279,526.16,719.16,109.82,1264.5-50.57,1425.54-190.06,186.88-161.87,319.25-384.72,399.15-646.189"/>
  <path id="red_star_1_copy" data-name="red star 1 copy" class="cls-2" d="M128.26,268.047c-0.088-9,12.861-10.463,14.788-1.675l15.5,70.686,67.179-26.9c8.352-3.345,14.416,8.191,6.925,13.173L162.16,370.212l0.83,84.652c0.088,9-12.861,10.464-14.788,1.676l-15.5-70.687-67.18,26.9c-8.352,3.344-14.415-8.192-6.924-13.174L129.09,352.7Z"/>
</svg>
