<svg id="stars" xmlns="http://www.w3.org/2000/svg" width="3840" height="2160" viewBox="0 0 3840 2160">
  <defs>
    <style>
      .cls-1 {
        fill: #b91616;
      }

      .cls-1, .cls-2, .cls-3 {
        fill-rule: evenodd;
      }

      .cls-2 {
        fill: none;
        stroke-width: 10px;
      }

      .cls-2, .cls-3 {
        stroke: #f0f2f6;
        stroke-linecap: square;
        stroke-linejoin: bevel;
      }

      .cls-3 {
        fill: #f0f2f6;
        stroke-width: 1px;
      }
    </style>
  </defs>
  <path id="red_star_1" data-name="red star 1" class="cls-1" d="M512.343,1733.98c9.669,0.24,10.77,14.2,1.257,15.95l-76.519,14.06,26.439,73.17c3.287,9.09-9.33,15.18-14.409,6.95l-47.785-77.46-90.985-2.21c-9.669-.24-10.77-14.21-1.257-15.95l76.519-14.06-26.439-73.17c-3.287-9.09,9.33-15.19,14.409-6.95l47.785,77.45Z"/>
  <path class="cls-2" d="M3056.72,1974.62c10.02-55.07,39.91-105.71,88.2-135.16,80.18-48.9,189.63-26.06,244.18,37.98,14.8,17.38,53.7,70.6,33.89,123.31-19.02,50.59-85.1,88.19-142.51,64.92-41.56-16.84-68.55-61.46-64.92-102.08,2.16-24.22,33.2-69.36,108.61-105.75a320.492,320.492,0,0,1,98.41-28.99"/>
  <path id="Polygon_1_copy" data-name="Polygon 1 copy" class="cls-3" d="M3191.44,1161.86c-14.73,18.09-50.07,3.51-45.98-17.66l24.58-127.26-122-43.778c-20.29-7.282-14.81-45.114,8.27-48.559l158.48-23.667L3359.68,641.6c40.95-73.294,135.26-91.789,109.87-21.059L3367.67,904.379l296.11,57.163c73.78,14.244,9.76,85.928-74.17,83.758l-296.97-7.68Z"/>
</svg>
