<svg xmlns="http://www.w3.org/2000/svg" width="1080" height="1920" viewBox="0 0 1080 1920">
  <defs>
    <style>
      .cls-1 {
        fill: #f0f2f6;
        stroke-width: 1px;
      }

      .cls-1, .cls-2 {
        stroke: #f0f2f6;
        stroke-linecap: square;
        stroke-linejoin: bevel;
      }

      .cls-1, .cls-2, .cls-3 {
        fill-rule: evenodd;
      }

      .cls-2 {
        fill: none;
        stroke-width: 10px;
      }

      .cls-3 {
        fill: #b91616;
      }
    </style>
  </defs>
  <path id="Polygon_1_copy" data-name="Polygon 1 copy" class="cls-1" d="M629.441,711.862c-14.734,18.088-50.072,3.508-45.982-17.662l24.583-127.263-122-43.775c-20.3-7.282-14.809-45.114,8.266-48.559l158.482-23.667L797.681,191.6c40.948-73.294,135.262-91.789,109.873-21.059L805.668,454.379l296.112,57.163c73.78,14.244,9.76,85.928-74.17,83.759l-296.967-7.677Z"/>
  <path class="cls-2" d="M569.718,1591.62c10.025-55.07,39.913-105.71,88.2-135.16,80.186-48.9,189.628-26.06,244.18,37.98,14.808,17.38,53.7,70.6,33.891,123.31-19.013,50.59-85.1,88.19-142.506,64.92-41.563-16.84-68.553-61.46-64.925-102.08,2.165-24.22,33.206-69.36,108.616-105.75a320.408,320.408,0,0,1,98.407-28.99"/>
  <path id="red_star_1" data-name="red star 1" class="cls-3" d="M319.343,1315.98c9.669,0.24,10.77,14.2,1.257,15.95l-76.519,14.06,26.439,73.17c3.287,9.09-9.33,15.18-14.409,6.95l-47.785-77.46-90.985-2.21c-9.669-.24-10.77-14.21-1.257-15.95l76.519-14.06-26.439-73.17c-3.287-9.09,9.33-15.19,14.409-6.95l47.785,77.45Z"/>
</svg>
