<svg id="stars" xmlns="http://www.w3.org/2000/svg" width="3840" height="2160" viewBox="0 0 3840 2160">
  <defs>
    <style>
      .cls-1 {
        fill: none;
        stroke: #f0f2f6;
        stroke-linecap: square;
        stroke-linejoin: bevel;
        stroke-width: 150px;
        opacity: 0.33;
      }

      .cls-1, .cls-2, .cls-3 {
        fill-rule: evenodd;
      }

      .cls-2 {
        fill: #b91616;
      }
    </style>
  </defs>
  <path class="cls-1" d="M-89,990c206.994,73.32,416.875,146.7,627.293,219.38,572.117,197.63,959.407,314.28,1355.977,147.01,313.26-132.14,651.38-449.439,588.61-698.213-46.83-185.617-319.6-263.875-474.57-276.083-136.18-10.727-320.72,17.258-463.53,150.045-230.51,214.34-257.48,598.561-154.51,846.251,69.04,166.08,470.38,423.56,1142.28,526.16,719.16,109.82,1264.5-50.57,1425.54-190.06,186.88-161.87,319.25-384.72,399.15-646.19"/>
  <path id="red_star_1" data-name="red star 1" class="cls-2" d="M862.343,1015.98c9.669,0.24,10.77,14.2,1.257,15.95l-76.519,14.06,26.439,73.17c3.287,9.09-9.33,15.18-14.409,6.95l-47.785-77.46-90.985-2.21c-9.669-.24-10.77-14.21-1.257-15.95l76.519-14.06-26.439-73.168c-3.287-9.1,9.33-15.187,14.409-6.956l47.785,77.454Z"/>
  <path id="red_star_1_copy_2" data-name="red star 1 copy 2" class="cls-3" d="M3101.34,1285.98c9.67,0.24,10.77,14.2,1.26,15.95l-76.52,14.06,26.44,73.17c3.29,9.09-9.33,15.18-14.41,6.95l-47.78-77.46-90.99-2.21c-9.67-.24-10.77-14.21-1.26-15.95l76.52-14.06-26.44-73.17c-3.28-9.09,9.33-15.19,14.41-6.95l47.79,77.45Z"/>
</svg>
