<svg xmlns="http://www.w3.org/2000/svg" width="1728" height="1957" viewBox="0 0 1728 1957">
  <defs>
    <style>
      .cls-1 {
        fill: none;
        stroke: #b91616;
        stroke-linecap: round;
        stroke-linejoin: round;
        stroke-width: 50px;
        fill-rule: evenodd;
      }
    </style>
  </defs>
  <path class="cls-1" d="M872,220c92.116,2.368,111.165,302.36,291,439,176.98,134.469,466.84,80.29,487,159,20.03,78.2-253.21,167.289-330,365-83.42,214.79,84.73,486.08,14,536-68.74,48.52-259.89-185.56-483.5-187.78C635.143,1529.07,448.482,1755.29,382,1707c-66.921-48.61,92.1-300.54,24-510C335.691,980.749,47.122,872.416,72,792c23.519-76.024,297.778-11.735,474-130C742.111,530.388,777.208,217.563,872,220Z"/>
</svg>
