<svg xmlns="http://www.w3.org/2000/svg" xmlns:xlink="http://www.w3.org/1999/xlink" width="1728" height="1257" viewBox="0 0 1728 1257">
  <defs>
    <style>
      .cls-1, .cls-2, .cls-3 {
        stroke: #fcfcfc;
        stroke-linecap: square;
        stroke-linejoin: bevel;
      }

      .cls-1, .cls-2, .cls-3, .cls-4, .cls-5 {
        stroke-width: 1px;
      }

      .cls-1, .cls-2 {
        fill-rule: evenodd;
      }

      .cls-1 {
        fill: url(#linear-gradient);
      }

      .cls-2 {
        fill: url(#linear-gradient-2);
      }

      .cls-4 {
        fill: #fff;
        stroke: #fff;
      }

      .cls-5 {
        stroke: #000;
      }
    </style>
    <linearGradient id="linear-gradient" x1="864" y1="1119.5" x2="864" y2="137" gradientUnits="userSpaceOnUse">
      <stop offset="0" stop-color="#cf3714"/>
      <stop offset="0.006" stop-color="#cf3714"/>
      <stop offset="1" stop-color="#b91616"/>
    </linearGradient>
    <linearGradient id="linear-gradient-2" x1="978.813" y1="403.844" x2="978.813" y2="107.031" gradientUnits="userSpaceOnUse">
      <stop offset="0" stop-color="#ffa800"/>
      <stop offset="1" stop-color="#ff7800"/>
    </linearGradient>
  </defs>
  <path id="Triangle_1" data-name="Triangle 1" class="cls-1" d="M864,137l567.25,982.5H296.75Z"/>
  <path id="hair" class="cls-2" d="M822.061,269.72c0-2.473.063-4.9,0.184-7.379,1.431-29.332,12.668-85.428,62.956-123.52,31.468-23.836,69.666-33.4,104.925-31.564,17.884,0.933,68.594,16.071,114.214,53.845,30.06,24.893,44.59,47.694,43.64,57.558-3.3,34.061-99.55,59.371-132.78,82.624-16.7,11.683-26.623,20.834-46.431,25.994-7.959,2.074-38.076,1.622-57.569,13.926-9.148,5.774-21.772,16.486-22.284,29.707-0.707,18.24,22.808,30.144,21.356,32.493-2.755,4.455-93.727-26.35-100.282-85.409a66.91,66.91,0,0,1,3.714-29.708"/>
  <ellipse id="mouth" class="cls-3" cx="864" cy="968" rx="103" ry="72"/>
  <circle id="left_eye_bck" data-name="left eye bck" class="cls-4" cx="640" cy="650" r="180"/>
  <circle id="left_inside" data-name="left inside" class="cls-5" cx="640" cy="650" r="97.094"/>
  <circle id="right_eye_bck" data-name="right eye bck" class="cls-4" cx="1088" cy="648" r="180"/>
  <circle id="right_inside" data-name="right inside" class="cls-5" cx="1087.998" cy="650" r="97.092"/>
</svg>
