<svg xmlns="http://www.w3.org/2000/svg" width="1080" height="1920" viewBox="0 0 1080 1920">
  <defs>
    <style>
      .cls-1 {
        fill: #f0f2f6;
        stroke: #fcfcfc;
        stroke-width: 1px;
      }

      .cls-1, .cls-2 {
        stroke-linecap: square;
        stroke-linejoin: bevel;
        fill-rule: evenodd;
      }

      .cls-2 {
        fill: none;
        stroke: #b91616;
        stroke-width: 10px;
      }
    </style>
  </defs>
  <path id="cloud_right" data-name="cloud right" class="cls-1" d="M1346.34,143.344c-101.65-36.446-211.25-36.026-302.55,14.5-95.033,52.586-186.133,167.916-155.2,233.241,5.187,10.954,16.753,24.158,36.351,36.832,23.373,15.116,43.112,10.9,57,24.811,37.973,38.03,2.178,167.166-82.381,247.38C847.63,749.37,774.81,773.171,715.051,813.139c-32.343,21.632-65.753,47.576-86.764,93.083C598.671,970.369,600.3,1061.61,644.75,1092.64c51.963,36.27,124.033-36.65,175.4-7.17,118.649,68.11-45.48,559.38,16.912,585.01,38.836,15.95,132.48-162.14,204.184-143.57,60.76,15.73,54.49,161.16,138.8,228.49,45.72,36.51,107.03,50.89,180.99,46.6"/>
  <path class="cls-2" d="M662.718,1348.62c10.025-55.07,39.914-105.71,88.2-135.16,80.186-48.9,189.628-26.06,244.18,37.98,14.8,17.38,53.7,70.6,33.893,123.31-19.02,50.59-85.1,88.19-142.508,64.92-41.562-16.84-68.553-61.46-64.925-102.08,2.165-24.22,33.206-69.36,108.616-105.75a320.408,320.408,0,0,1,98.407-28.99"/>
  <path id="cloud_right_copy" data-name="cloud right copy" class="cls-1" d="M-238.545,1717.6c103.876,29.52,213.2,21.72,300.889-34.84,91.273-58.86,174.4-180.07,139.131-243.16-5.913-10.58-18.342-22.98-38.749-34.3-24.338-13.51-43.748-7.97-58.544-20.92-40.449-35.38-13.433-166.64,65.531-252.36,48.5-52.66,119.551-81.31,176.482-125.21,30.813-23.763,62.4-51.9,80.3-98.717,25.229-66,17.454-156.923-28.982-184.884-54.287-32.689-121.282,44.923-174.523,18.963C100.021,682.213,230.686,181,166.71,159.635c-39.823-13.3-121.259,170.694-194.048,157C-89.018,305.026-92.562,159.5-181.215,98.007c-48.075-33.349-110.216-43.562-183.719-34.3"/>
</svg>
