<svg id="stars" xmlns="http://www.w3.org/2000/svg" width="3840" height="2160" viewBox="0 0 3840 2160">
  <defs>
    <style>
      .cls-1 {
        fill: #b91616;
      }

      .cls-1, .cls-2 {
        fill-rule: evenodd;
      }

      .cls-2 {
        fill: #f0f2f6;
        stroke: #f0f2f6;
        stroke-linecap: square;
        stroke-linejoin: bevel;
        stroke-width: 1px;
      }
    </style>
  </defs>
  <path id="red_star_1_copy" data-name="red star 1 copy" class="cls-1" d="M634.26,449.047c-0.088-9,12.861-10.463,14.788-1.675l15.5,70.686,67.179-26.9c8.352-3.345,14.416,8.191,6.925,13.173L668.16,551.212l0.83,84.652c0.088,9-12.861,10.464-14.788,1.676l-15.5-70.687-67.179,26.9c-8.352,3.344-14.416-8.192-6.925-13.174L635.09,533.7Z"/>
  <path id="Polygon_1_copy" data-name="Polygon 1 copy" class="cls-2" d="M3310.75,1868.64c-9.72,11.94-33.04,2.32-30.35-11.66l16.23-83.98-80.51-28.89c-13.4-4.81-9.78-29.77,5.45-32.05l104.59-15.61,95.62-171.15c27.02-48.37,89.26-60.58,72.51-13.9l-67.24,187.32,195.41,37.72c48.69,9.4,6.44,56.71-48.94,55.28l-195.98-5.07Z"/>
</svg>
