<svg id="stars" xmlns="http://www.w3.org/2000/svg" width="3840" height="2160" viewBox="0 0 3840 2160">
  <defs>
    <style>
      .cls-1 {
        fill: #b91616;
      }

      .cls-1, .cls-2 {
        fill-rule: evenodd;
      }

      .cls-2 {
        fill: #f0f2f6;
        stroke: #f0f2f6;
        stroke-linecap: square;
        stroke-linejoin: bevel;
        stroke-width: 1px;
      }
    </style>
  </defs>
  <path id="red_star_1" data-name="red star 1" class="cls-1" d="M3694.34,1807.98c9.67,0.24,10.77,14.2,1.26,15.95l-76.52,14.06,26.44,73.17c3.29,9.09-9.33,15.18-14.41,6.95l-47.78-77.46-90.99-2.21c-9.67-.24-10.77-14.21-1.26-15.95l76.52-14.06-26.44-73.17c-3.28-9.09,9.33-15.19,14.41-6.95l47.79,77.45Z"/>
  <path id="red_star_1_copy" data-name="red star 1 copy" class="cls-1" d="M314.26,505.047c-0.088-9,12.861-10.463,14.788-1.675l15.5,70.686,67.179-26.9c8.352-3.345,14.416,8.191,6.925,13.173L348.16,607.213l0.83,84.651c0.088,9-12.861,10.464-14.788,1.676l-15.5-70.687-67.178,26.9c-8.352,3.344-14.416-8.192-6.925-13.174L315.09,589.7Z"/>
  <path id="Polygon_1" data-name="Polygon 1" class="cls-2" d="M727.321,1639.09c20.342-1.79,32.755,29.29,16.974,39.64l-94.865,62.23L696.4,1844.23c7.813,17.18-19.275,36.82-35.518,24.44l-111.557-85.01-251.163,67.32c-70.982,19.02-140.138-28.88-80.259-56.1l240.3-109.26L313.392,1464.91c-36.084-54.99,47.966-58.56,97.817-4.57L587.6,1651.39Z"/>
  <path id="Polygon_1_copy" data-name="Polygon 1 copy" class="cls-2" d="M3197.44,1109.86c-14.73,18.09-50.07,3.51-45.98-17.66l24.58-127.263-122-43.775c-20.29-7.282-14.81-45.114,8.27-48.559l158.48-23.667L3365.68,589.6c40.95-73.294,135.26-91.789,109.87-21.059L3373.67,852.379l296.11,57.163c73.78,14.244,9.76,85.928-74.17,83.759l-296.97-7.677Z"/>
</svg>
